<svg width="18" height="18" viewBox="0 0 18 18" fill="none" xmlns="http://www.w3.org/2000/svg">
<path fill-rule="evenodd" clip-rule="evenodd" d="M7.28129 6.60708L6.54492 5.85289C7.21992 5.23697 8.01765 4.91016 8.96265 4.91016C10.5704 4.91016 11.454 5.97859 11.454 7.21044C11.454 9.04563 9.55174 8.83194 9.55174 10.5917V11.3208H8.42265V10.5917C8.42265 8.34172 10.2758 8.37943 10.2758 7.22301C10.2758 6.64479 9.87083 5.94088 8.9381 5.94088C8.32447 5.94088 7.68629 6.21742 7.28129 6.60708ZM8.27538 13.1811C8.27538 12.7789 8.59447 12.4521 8.98719 12.4521C9.39219 12.4521 9.69901 12.7789 9.69901 13.1811C9.69901 13.5959 9.39219 13.9102 8.98719 13.9102C8.59447 13.9102 8.27538 13.5959 8.27538 13.1811Z" fill="#053D59"/>
<path d="M2.22463 4.41471C-0.127618 7.8903 0.531361 12.582 3.75003 15.2752C6.9687 17.9683 11.7032 17.7893 14.7093 14.8609C17.7155 11.9325 18.0184 7.20437 15.4105 3.91628C12.8025 0.628197 8.12964 -0.153427 4.59363 2.10698" stroke="#053D59" stroke-linecap="round" stroke-linejoin="round"/>
</svg>
