<svg width="40" height="40" viewBox="0 0 40 40" fill="none" xmlns="http://www.w3.org/2000/svg">
<circle cx="20" cy="20" r="20" fill="#D71440"/>
<path d="M25.7501 21.6512L26.1036 22.0048L26.4572 21.6512L26.1036 21.2977L25.7501 21.6512ZM25.3965 22.0048L25.7501 22.3583L25.7501 22.3583L25.3965 22.0048ZM25.3965 21.2977L25.043 21.6512L25.043 21.6512L25.3965 21.2977ZM24.7816 20.6828L25.1352 20.3292H25.1352L24.7816 20.6828ZM24.4281 20.3292L24.7816 19.9757L24.4281 19.6221L24.0745 19.9757L24.4281 20.3292ZM24.0745 20.6828L23.721 20.3292H23.721L24.0745 20.6828ZM21.2825 23.4748H20.7825V24.6819L21.6361 23.8284L21.2825 23.4748ZM21.2825 12.543H21.7825V12.043H21.2825V12.543ZM19.413 12.543V12.043H18.913V12.543H19.413ZM19.413 23.4748L19.0594 23.8284L19.913 24.6819V23.4748H19.413ZM16.2674 20.3292L16.621 19.9757L16.2674 19.6221L15.9139 19.9757L16.2674 20.3292ZM15.9139 20.6828L15.5603 20.3292L15.9139 20.6828ZM15.299 21.2977L15.6525 21.6512V21.6512L15.299 21.2977ZM14.9454 21.6512L14.5919 21.2977L14.2383 21.6512L14.5919 22.0048L14.9454 21.6512ZM15.299 22.0048L14.9454 22.3583V22.3583L15.299 22.0048ZM19.9942 26.7L20.3478 26.3464L20.3478 26.3464L19.9942 26.7ZM20.3478 27.0535L19.9942 27.4071L20.3478 27.7607L20.7013 27.4071L20.3478 27.0535ZM20.7013 26.7L20.3478 26.3464L20.3478 26.3464L20.7013 26.7ZM25.3965 21.2977L25.043 21.6512L25.7501 22.3583L26.1036 22.0048L25.3965 21.2977ZM25.043 21.6512L25.3965 22.0048L26.1036 21.2977L25.7501 20.9441L25.043 21.6512ZM24.4281 21.0363L25.043 21.6512L25.7501 20.9441L25.1352 20.3292L24.4281 21.0363ZM24.0745 20.6828L24.4281 21.0363L25.1352 20.3292L24.7816 19.9757L24.0745 20.6828ZM24.4281 21.0363L24.7816 20.6828L24.0745 19.9757L23.721 20.3292L24.4281 21.0363ZM21.6361 23.8284L24.4281 21.0363L23.721 20.3292L20.929 23.1212L21.6361 23.8284ZM20.7825 13.043V23.4748H21.7825V13.043H20.7825ZM20.7825 12.543V13.043H21.7825V12.543H20.7825ZM20.7825 13.043H21.2825V12.043H20.7825V13.043ZM19.913 13.043H20.7825V12.043H19.913V13.043ZM19.413 13.043H19.913V12.043H19.413V13.043ZM19.913 13.043V12.543H18.913V13.043H19.913ZM19.913 23.4748V13.043H18.913V23.4748H19.913ZM16.2674 21.0363L19.0594 23.8284L19.7665 23.1212L16.9745 20.3292L16.2674 21.0363ZM15.9139 20.6828L16.2674 21.0363L16.9745 20.3292L16.621 19.9757L15.9139 20.6828ZM16.2674 21.0363L16.621 20.6828L15.9139 19.9757L15.5603 20.3292L16.2674 21.0363ZM15.6525 21.6512L16.2674 21.0363L15.5603 20.3292L14.9454 20.9441L15.6525 21.6512ZM15.299 22.0048L15.6525 21.6512L14.9454 20.9441L14.5919 21.2977L15.299 22.0048ZM15.6525 21.6512L15.299 21.2977L14.5919 22.0048L14.9454 22.3583L15.6525 21.6512ZM20.3478 26.3464L15.6525 21.6512L14.9454 22.3583L19.6406 27.0535L20.3478 26.3464ZM20.7013 26.7L20.3478 26.3464L19.6406 27.0535L19.9942 27.4071L20.7013 26.7ZM20.3478 26.3464L19.9942 26.7L20.7013 27.4071L21.0549 27.0535L20.3478 26.3464ZM25.043 21.6512L20.3478 26.3464L21.0549 27.0535L25.7501 22.3583L25.043 21.6512Z" fill="white"/>
</svg>
