<svg width="971" height="48" fill="none" xmlns="http://www.w3.org/2000/svg"><g clip-path="url(#clip0)"><path d="M41.163 19.83c-.603 0-1.093-.198-1.472-.593-.378-.397-.567-.928-.567-1.591v-.14c0-.441.083-.834.25-1.18.17-.348.406-.62.708-.814.304-.197.633-.296.987-.296.578 0 1.027.19 1.348.572.32.38.481.926.481 1.636v.317h-3.014c.011.438.139.793.383 1.064.246.269.559.403.937.403.269 0 .496-.054.683-.164.186-.11.35-.255.49-.436l.464.362c-.373.573-.932.86-1.678.86zm-.094-3.99c-.307 0-.565.113-.773.338-.209.222-.337.535-.387.938h2.229v-.058c-.022-.386-.127-.685-.313-.896-.186-.214-.438-.321-.756-.321zm3.433-.542l.024.56c.34-.428.784-.642 1.333-.642.94 0 1.414.53 1.422 1.591v2.94h-.76v-2.944c-.003-.32-.077-.558-.222-.711-.143-.154-.366-.23-.67-.23-.247 0-.464.065-.65.197a1.341 1.341 0 00-.436.518v3.17h-.76v-4.449h.719zm5.71 3.91c.272 0 .51-.082.712-.246a.868.868 0 00.337-.617h.72a1.38 1.38 0 01-.263.728 1.73 1.73 0 01-.65.55 1.856 1.856 0 01-.855.206c-.606 0-1.088-.201-1.447-.604-.357-.406-.535-.96-.535-1.661v-.128c0-.433.08-.818.238-1.155a1.82 1.82 0 01.683-.785c.299-.187.651-.28 1.057-.28.499 0 .912.15 1.241.448.332.299.509.687.53 1.164h-.719a1.037 1.037 0 00-.329-.707 1.006 1.006 0 00-.723-.28c-.387 0-.687.14-.9.42-.212.276-.317.678-.317 1.204v.144c0 .512.105.907.316 1.184.211.277.513.415.905.415zm4.774-3.227a2.277 2.277 0 00-.374-.03c-.499 0-.837.213-1.015.638v3.158h-.76v-4.449h.74l.012.514c.249-.397.602-.596 1.06-.596.148 0 .26.02.337.058v.707zm2.236 2.652l1.036-3.335h.814l-1.789 5.136c-.276.74-.716 1.11-1.32 1.11l-.143-.013-.284-.053v-.617l.206.017c.257 0 .457-.052.6-.157.145-.104.264-.294.358-.571l.168-.452-1.587-4.4h.83l1.11 3.335zm6.29-1.061c0 .677-.154 1.222-.464 1.636-.31.414-.73.621-1.258.621-.54 0-.965-.171-1.275-.514v2.142h-.76v-6.159h.694l.037.494c.31-.384.74-.576 1.291-.576.535 0 .957.201 1.267.604.312.403.468.964.468 1.682v.07zm-.76-.086c0-.502-.107-.898-.32-1.189a1.033 1.033 0 00-.88-.436c-.461 0-.807.205-1.037.613V18.6c.228.405.576.608 1.044.608.365 0 .654-.144.868-.431.217-.29.325-.721.325-1.291zm2.763-3.265v1.077h.83v.588h-.83v2.759c0 .178.037.313.11.403.075.088.2.132.38.132.087 0 .207-.017.36-.05v.617c-.2.055-.394.082-.583.082-.34 0-.596-.103-.769-.308-.172-.206-.259-.498-.259-.876v-2.759h-.81v-.588h.81v-1.077h.76zm3.569 5.608c-.603 0-1.094-.197-1.472-.592-.378-.397-.568-.928-.568-1.591v-.14c0-.441.084-.834.251-1.18.17-.348.406-.62.707-.814.305-.197.633-.296.987-.296.578 0 1.028.19 1.349.572.32.38.48.926.48 1.636v.317h-3.013c.01.438.138.793.382 1.064.247.269.56.403.938.403.268 0 .496-.054.682-.164.187-.11.35-.255.49-.436l.464.362c-.373.573-.932.86-1.677.86zm-.095-3.988c-.307 0-.565.112-.773.337-.208.222-.337.535-.386.938h2.228v-.058c-.022-.386-.126-.685-.312-.896-.187-.214-.439-.321-.757-.321zm2.529 1.645c0-.683.162-1.231.485-1.645a1.533 1.533 0 011.27-.625c.521 0 .934.178 1.238.535v-2.32h.76v6.316h-.698l-.037-.477c-.305.373-.728.56-1.27.56-.516 0-.937-.212-1.263-.634-.323-.422-.485-.973-.485-1.653v-.057zm.76.086c0 .504.105.899.313 1.184.208.285.496.428.863.428.483 0 .835-.217 1.057-.65v-2.043c-.227-.42-.577-.63-1.048-.63-.373 0-.664.144-.872.432-.208.288-.313.714-.313 1.279z" fill="#6BA94F"/><path d="M86.169 25.52H2.832A2.332 2.332 0 01.5 23.19V2.81A2.332 2.332 0 012.832.48h83.337A2.332 2.332 0 0188.5 2.81v20.38a2.332 2.332 0 01-2.331 2.33z" stroke="#6FAB53"/><path fill-rule="evenodd" clip-rule="evenodd" d="M23.989 12.914a.355.355 0 00-.356.355c0 4.315-3.51 7.826-7.825 7.826a7.794 7.794 0 01-7.085-4.509l1.847.822a.355.355 0 10.29-.649l-2.6-1.158a.352.352 0 00-.272-.007.348.348 0 00-.197.187l-1.157 2.6a.356.356 0 10.649.29l.795-1.786a8.501 8.501 0 007.73 4.922c4.707 0 8.537-3.83 8.537-8.538a.355.355 0 00-.356-.355zM24.819 7.676a.354.354 0 00-.47.181l-.806 1.81a8.492 8.492 0 00-7.736-4.932c-4.708 0-8.537 3.83-8.537 8.538a.355.355 0 00.711 0c0-4.317 3.511-7.826 7.826-7.826a7.787 7.787 0 017.074 4.481l-1.82-.81a.355.355 0 10-.29.65l2.6 1.157a.356.356 0 00.47-.18l1.157-2.599a.356.356 0 00-.18-.47z" fill="#6BA94F"/><path fill-rule="evenodd" clip-rule="evenodd" d="M16.748 11.57l-2.682.644-.435-1.818a1.379 1.379 0 012.682-.642l.435 1.817zm.274 4.894l-.98.235-.56-1.518a.695.695 0 011.35-.324l.19 1.607zm1.206-5.247l-.475.114-.436-1.818a2.415 2.415 0 00-2.907-1.784 2.416 2.416 0 00-1.784 2.907l.435 1.818-.475.114a.966.966 0 00-.713 1.163l1.037 4.33a.966.966 0 001.163.714l5.642-1.351a.967.967 0 00.713-1.164l-1.037-4.33a.965.965 0 00-1.163-.713z" fill="#6BA94F"/><path d="M40.126 10.948h-3.923V10.4L38.275 8.1c.308-.349.519-.63.634-.847.117-.22.177-.446.177-.679 0-.312-.095-.569-.284-.769-.19-.2-.441-.3-.757-.3-.378 0-.673.108-.884.325-.208.214-.312.513-.312.896h-.76c0-.55.176-.996.53-1.336.356-.34.831-.51 1.426-.51.557 0 .997.147 1.32.44.323.29.485.679.485 1.164 0 .59-.375 1.29-1.126 2.105l-1.604 1.74h3.006v.62zm1.15-3.002l.305-2.985h3.067v.704h-2.421l-.181 1.632a1.932 1.932 0 01.999-.26c.545 0 .978.182 1.3.544.32.359.48.845.48 1.46 0 .616-.167 1.102-.501 1.459-.332.353-.797.53-1.394.53-.53 0-.961-.146-1.295-.44-.335-.293-.525-.699-.572-1.217h.72c.046.343.168.602.365.777.198.173.458.26.782.26.353 0 .63-.121.83-.363.203-.24.305-.574.305-.999 0-.4-.11-.72-.33-.962-.216-.244-.505-.366-.867-.366-.332 0-.592.073-.781.218l-.202.165-.608-.157zm7.36-2.989v.646h-.14c-.591.01-1.063.186-1.414.526-.35.34-.553.818-.608 1.435.315-.362.745-.543 1.29-.543.522 0 .937.184 1.247.551.312.368.468.842.468 1.423 0 .617-.168 1.11-.505 1.48-.335.37-.784.555-1.349.555a1.71 1.71 0 01-1.394-.658c-.356-.441-.534-1.008-.534-1.702v-.292c0-1.102.234-1.943.703-2.524.471-.584 1.172-.883 2.1-.897h.137zm-.999 2.698c-.26 0-.5.078-.72.234-.218.156-.37.352-.456.588v.28c0 .493.111.89.334 1.192.222.301.498.452.83.452.343 0 .611-.126.806-.378.197-.252.296-.583.296-.991 0-.411-.1-.743-.3-.995a.948.948 0 00-.79-.382zm4.4 1.06H50.03v-.62h2.007v.62zm4.506.058c0 .68-.156 1.227-.469 1.64-.312.412-.732.617-1.258.617-.562 0-.996-.199-1.303-.596l-.037.514h-.7V4.632h.761v2.356c.307-.38.73-.571 1.27-.571s.964.204 1.271.613c.31.408.465.967.465 1.677v.066zm-.76-.086c0-.519-.1-.919-.3-1.201-.2-.282-.489-.424-.864-.424-.502 0-.862.233-1.082.7v1.924c.233.466.597.699 1.09.699.365 0 .648-.142.851-.424.203-.282.304-.707.304-1.274zm2.544 2.26h-.76V6.5h.76v4.449zm-.822-5.628a.46.46 0 01.111-.312c.077-.085.19-.128.337-.128.148 0 .26.043.337.128a.45.45 0 01.116.312.434.434 0 01-.116.309c-.076.082-.189.123-.337.123-.148 0-.26-.041-.337-.123a.444.444 0 01-.111-.309zm3.071.103v1.077h.83v.588h-.83v2.759c0 .178.037.313.111.403.074.088.2.131.379.131.087 0 .208-.016.361-.049v.617c-.2.055-.394.082-.583.082-.34 0-.597-.103-.77-.308-.172-.206-.258-.498-.258-.876V7.087h-.81V6.5h.81V5.422h.76zm5.687 2.858c-.678-.195-1.171-.434-1.48-.716a1.38 1.38 0 01-.461-1.053c0-.471.188-.86.563-1.167.378-.31.869-.465 1.472-.465.411 0 .777.08 1.098.239.323.159.573.378.748.658.178.28.267.585.267.916h-.793c0-.361-.115-.645-.346-.85-.23-.209-.555-.313-.974-.313-.39 0-.694.086-.913.259-.216.17-.325.407-.325.711 0 .244.103.451.309.621.208.167.56.32 1.056.46.5.14.889.295 1.168.465.282.167.49.363.625.588.137.225.206.49.206.794 0 .485-.19.874-.568 1.167-.378.29-.884.436-1.517.436-.411 0-.795-.078-1.151-.234a1.967 1.967 0 01-.826-.65 1.588 1.588 0 01-.288-.933h.793c0 .362.133.648.399.86.269.207.626.312 1.073.312.417 0 .736-.085.958-.255a.828.828 0 00.333-.695c0-.293-.103-.52-.308-.679-.206-.161-.579-.32-1.118-.476zm4.995 0c-.677-.195-1.17-.434-1.48-.716a1.38 1.38 0 01-.46-1.053c0-.471.187-.86.563-1.167.378-.31.868-.465 1.472-.465.41 0 .777.08 1.097.239.324.159.573.378.749.658.178.28.267.585.267.916h-.794c0-.361-.115-.645-.345-.85-.23-.209-.555-.313-.974-.313-.39 0-.694.086-.913.259-.217.17-.325.407-.325.711 0 .244.103.451.308.621.209.167.56.32 1.057.46.499.14.888.295 1.168.465.282.167.49.363.625.588.137.225.205.49.205.794 0 .485-.189.874-.567 1.167-.378.29-.884.436-1.517.436-.412 0-.795-.078-1.152-.234a1.967 1.967 0 01-.826-.65 1.588 1.588 0 01-.288-.933h.794c0 .362.133.648.398.86.27.207.627.312 1.074.312.416 0 .736-.085.958-.255a.828.828 0 00.333-.695c0-.293-.103-.52-.309-.679-.205-.161-.578-.32-1.118-.476zm4.025 2.022h2.837v.646h-3.63V4.96h.793v5.341z" fill="#6BA94F"/></g><rect x="91.5" y=".5" width="69" height="47" rx="5.5" fill="#1F72CD" stroke="#D9D9D9"/><path d="M142.182 15.65l-1.316 2.9h2.639l-1.323-2.9zM127 17.448c.248-.118.394-.374.394-.692 0-.312-.154-.537-.402-.643-.226-.118-.573-.131-.906-.131h-2.354v1.616h2.322c.372 0 .683-.005.946-.15zM96.837 15.65l-1.3 2.9h2.61l-1.31-2.9zm60.565 18.582h-3.691V32.67h3.676c.365 0 .62-.043.774-.18a.616.616 0 00.226-.475.575.575 0 00-.234-.48c-.138-.112-.34-.163-.673-.163-1.795-.055-4.034.05-4.034-2.252 0-1.055.736-2.167 2.742-2.167h3.808v-1.448h-3.538c-1.067 0-1.843.233-2.392.595v-.595h-5.233c-.837 0-1.819.19-2.283.595v-.595h-9.345v.595c-.744-.488-1.999-.595-2.578-.595h-6.164v.595c-.588-.518-1.897-.595-2.694-.595h-6.898l-1.579 1.555-1.478-1.555h-10.305v10.156h10.111l1.626-1.58 1.532 1.58 6.232.005v-2.39h.613c.827.013 1.802-.018 2.663-.356v2.74h5.14v-2.647h.248c.316 0 .348.013.348.3v2.347h15.616c.991 0 2.028-.23 2.601-.65v.65h4.954c1.03 0 2.037-.132 2.803-.468V33.3c-.464.618-1.369.931-2.594.931zm-31.697-2.398h-2.385v2.44h-3.716l-2.354-2.408-2.446 2.409h-7.572v-7.278h7.689l2.351 2.386 2.432-2.386h6.108c1.517 0 3.222.383 3.222 2.398 0 2.021-1.658 2.439-3.329 2.439zm11.47-.33c.27.355.308.687.316 1.328v1.443h-1.919v-.91c0-.438.046-1.087-.309-1.425-.279-.26-.705-.323-1.403-.323h-2.042v2.658h-1.921v-7.278h4.413c.968 0 1.673.04 2.3.344.603.331.983.786.983 1.616 0 1.161-.852 1.754-1.355 1.936.426.143.773.399.937.61zm7.896-3.002h-4.476v1.323h4.367v1.485h-4.367v1.448l4.476.007v1.51h-6.38v-7.278h6.38v1.505zm4.912 5.773h-3.723v-1.56h3.708c.363 0 .62-.045.781-.181a.619.619 0 00.226-.474.603.603 0 00-.233-.482c-.147-.111-.348-.161-.681-.161-1.788-.056-4.027.05-4.027-2.253 0-1.056.73-2.167 2.734-2.167h3.832v1.55h-3.507c-.347 0-.573.011-.766.13-.209.119-.287.294-.287.524 0 .275.178.462.418.542.202.064.419.083.744.083l1.029.025c1.038.023 1.75.187 2.184.585.371.35.571.793.571 1.542 0 1.566-1.075 2.297-3.003 2.297zm-14.826-5.655c-.231-.125-.572-.132-.912-.132h-2.354v1.635h2.323c.371 0 .688-.012.943-.15a.768.768 0 00.396-.699c0-.311-.148-.536-.396-.654zm21.359-.132c-.348 0-.579.012-.774.132-.202.118-.279.292-.279.523 0 .275.17.462.418.542.202.064.418.083.736.083l1.037.025c1.045.024 1.743.187 2.169.586.077.055.124.117.177.18v-2.07h-3.484zm-30.745 0h-2.492v1.854h2.47c.734 0 1.191-.332 1.191-.961 0-.637-.479-.893-1.169-.893zm-16.635 0v1.323h4.197v1.485h-4.197v1.448h4.7l2.184-2.135-2.091-2.12h-4.793zm12.273 5.09v-5.835l-2.935 2.87 2.935 2.964zm-12.113-11.685v1.254h15.971l-.007-2.653h.309c.216.007.279.025.279.35v2.303h8.261v-.617c.666.324 1.702.617 3.066.617h3.475l.743-1.616h1.649l.727 1.616h6.697v-1.535l1.014 1.535h5.366V13h-5.31v1.198L150.792 13h-5.45v1.198L144.66 13h-7.362c-1.232 0-2.315.156-3.19.593V13h-5.079v.593c-.557-.45-1.316-.593-2.159-.593h-18.559l-1.245 2.621L105.788 13h-5.846v1.198L99.3 13h-4.985L92 17.825v3.859l3.423-7.276h2.84l3.251 6.889v-6.889h3.121l2.501 4.936 2.299-4.936h3.182v7.276h-1.959l-.007-5.698-2.772 5.698H106.2l-2.779-5.703v5.703h-3.888l-.735-1.623h-3.98l-.742 1.623H92v1.464h3.266l.737-1.616h1.649l.734 1.616h6.427v-1.236l.573 1.24h3.336l.574-1.259zm25.167-6.637c.618-.58 1.586-.848 2.903-.848h1.851v1.559h-1.812c-.697 0-1.092.094-1.471.43-.326.307-.55.886-.55 1.649 0 .78.171 1.341.526 1.708.294.288.829.376 1.332.376h.859l2.694-5.722h2.864l3.237 6.882v-6.882h2.911l3.36 5.067v-5.067h1.958v7.276h-2.709l-3.623-5.461v5.46h-3.894l-.743-1.622h-3.972l-.721 1.623h-2.237c-.929 0-2.106-.187-2.772-.805-.672-.618-1.021-1.455-1.021-2.778-.001-1.079.208-2.065 1.03-2.845zm-3.932-.848h1.951v7.276h-1.951v-7.276zm-8.794 0h4.397c.977 0 1.697.024 2.315.348.604.325.967.8.967 1.611 0 1.16-.851 1.76-1.347 1.94.418.145.776.4.946.612.27.362.317.685.317 1.335v1.43h-1.929l-.007-.918c0-.438.046-1.067-.301-1.417-.28-.256-.706-.312-1.394-.312h-2.052v2.647h-1.912v-7.276zm-7.706 0h6.386v1.515h-4.474v1.311h4.366v1.492h-4.366v1.453h4.474v1.505h-6.386v-7.276z" fill="#fff"/><rect x="555.25" y=".25" width="23.5" height="15.5" rx="1.75" fill="#fff" stroke="#D9D9D9" stroke-width=".5"/><path d="M574.576 11.577A2.422 2.422 0 01572.154 14H559V4.423A2.423 2.423 0 01561.423 2h13.153v9.577z" fill="#fff"/><path d="M570.288 8.21c.376.008.754-.016 1.128.013.379.07.47.644.133.832-.229.124-.502.046-.751.068h-.51V8.21zm1.345-1.033c.083.294-.201.559-.484.518h-.861c.006-.278-.012-.58.009-.842.345.01.693-.02 1.035.015a.409.409 0 01.301.309zm2.071-4.37c.016.563.003 1.156.007 1.73-.001 2.334.002 4.668-.002 7.002-.015.874-.79 1.634-1.659 1.652-.869.003-1.739 0-2.608.001V9.664c.947-.005 1.895.01 2.842-.008.44-.027.921-.317.941-.8.052-.486-.406-.822-.84-.875-.168-.004-.163-.049 0-.068.414-.09.74-.519.618-.948-.104-.452-.604-.627-1.019-.626-.848-.006-1.695-.001-2.542-.003.005-.659-.012-1.318.009-1.976.067-.86.862-1.568 1.718-1.552h2.535z" fill="url(#paint0_linear)"/><path d="M559.868 4.449c.021-.874.8-1.628 1.667-1.64.867-.003 1.733 0 2.599-.001-.002 2.921.005 5.844-.003 8.765-.034.863-.804 1.603-1.662 1.618-.868.003-1.736 0-2.604.001V9.545c.843.199 1.728.284 2.588.152.514-.083 1.076-.335 1.25-.869.128-.456.056-.936.075-1.405V6.336h-1.488c-.007.72.014 1.44-.011 2.158-.04.442-.477.722-.894.707-.516.006-1.54-.374-1.54-.374-.002-1.348.015-3.035.023-4.378z" fill="url(#paint1_linear)"/><path d="M564.689 6.775c-.078.016-.015-.267-.035-.375.005-.68-.012-1.36.009-2.04.067-.863.867-1.573 1.727-1.552h2.533c-.003 2.921.004 5.844-.004 8.766-.033.862-.803 1.602-1.661 1.617-.868.003-1.736 0-2.604.001V9.196c.592.486 1.398.562 2.137.564.556 0 1.11-.087 1.651-.215v-.732c-.61.304-1.326.497-2.001.322a1.089 1.089 0 01-.806-1.059c-.055-.506.242-1.04.739-1.19.617-.193 1.289-.045 1.867.206.124.065.25.145.201-.062v-.575c-.968-.23-1.997-.315-2.969-.065-.281.08-.555.2-.784.385z" fill="url(#paint2_linear)"/><rect x="261.25" y=".25" width="23.5" height="15.5" rx="1.75" fill="url(#paint3_linear)" stroke="#D9D9D9" stroke-width=".5"/><path d="M280.487 5.745c0-.208-.04-.412-.12-.61a1.46 1.46 0 00-.347-.502 1.437 1.437 0 00-.552-.34c-.201-.062-.475-.095-.819-.095h-4.64v3.094h4.638c.344 0 .617-.033.818-.096a1.41 1.41 0 00.553-.336c.153-.146.268-.314.346-.502.083-.204.123-.407.123-.613zM280.487 9.252c0-.208-.04-.411-.12-.612a1.47 1.47 0 00-.347-.505 1.437 1.437 0 00-.552-.339c-.201-.065-.475-.095-.819-.095h-4.64V10.8h4.638c.344 0 .617-.034.818-.096.201-.066.384-.176.553-.34a1.544 1.544 0 00.469-1.112zM273.593 7.292C273.5 5.29 272.061 4 269.799 4 267.464 4 266 5.38 266 7.5c0 2.187 1.522 3.5 3.799 3.5 2.28 0 3.703-1.298 3.794-3.3h-3.674v-.41h3.674v.002z" fill="#fff"/><rect x="653.25" y=".25" width="23.5" height="15.5" rx="1.75" fill="#fff" stroke="#D9D9D9" stroke-width=".5"/><path d="M666.705 7.909c0 2.71-2.173 4.909-4.853 4.909-2.679 0-4.852-2.198-4.852-4.91C657 5.199 659.173 3 661.852 3c2.68 0 4.853 2.198 4.853 4.909z" fill="#ED0006"/><path d="M673 7.909c0 2.71-2.173 4.909-4.852 4.909-2.68 0-4.853-2.198-4.853-4.91 0-2.71 2.173-4.908 4.853-4.908C670.827 3 673 5.198 673 7.909z" fill="#0099DF"/><path fill-rule="evenodd" clip-rule="evenodd" d="M665 11.645a4.923 4.923 0 001.705-3.736A4.922 4.922 0 00665 4.173a4.922 4.922 0 00-1.705 3.736c0 1.496.662 2.836 1.705 3.736z" fill="#6C6BBD"/><rect x="751.25" y=".25" width="23.5" height="15.5" rx="1.75" fill="#fff" stroke="#D9D9D9" stroke-width=".5"/><path fill-rule="evenodd" clip-rule="evenodd" d="M762.658 11.806A5.077 5.077 0 01759.375 13c-2.794 0-5.06-2.239-5.06-5s2.266-5 5.06-5c1.253 0 2.399.45 3.283 1.194A5.073 5.073 0 01765.94 3c2.795 0 5.06 2.239 5.06 5s-2.265 5-5.06 5a5.073 5.073 0 01-3.282-1.194z" fill="#ED0006"/><path fill-rule="evenodd" clip-rule="evenodd" d="M762.658 11.806a4.964 4.964 0 000-7.612A5.073 5.073 0 01765.94 3c2.794 0 5.06 2.239 5.06 5s-2.266 5-5.06 5a5.073 5.073 0 01-3.282-1.194z" fill="#F9A000"/><path fill-rule="evenodd" clip-rule="evenodd" d="M762.658 11.806a4.964 4.964 0 000-7.612A4.965 4.965 0 00760.88 8c0 1.524.69 2.888 1.778 3.806z" fill="#FF5E00"/><rect x="457.25" y=".25" width="23.5" height="15.5" rx="1.75" fill="#fff" stroke="#D9D9D9" stroke-width=".5"/><path d="M480.5 9.5V14c0 .682-.5 1.5-1.537 1.5H464.5c1.324-.188 3.974-.493 6-1 1.978-.495 3.676-1.17 4.5-1.5 1.027-.41 2.813-1.282 3.808-2 .692-.5 1-.808 1.692-1.5z" fill="#FF5000"/><path fill-rule="evenodd" clip-rule="evenodd" d="M477.6 6.075c.737 0 1.142.328 1.142.947a.886.886 0 01-.737.947L479 9.317h-.774l-.847-1.312h-.073v1.312h-.626V6.075h.92zm-.294 1.494h.184c.405 0 .589-.182.589-.51 0-.292-.184-.474-.589-.474h-.184v.984zm-2.8 1.748h1.768V8.77h-1.141v-.874h1.105V7.35h-1.105V6.62h1.141v-.546h-1.768v3.242zm-1.841-1.057l-.847-2.185h-.663l1.362 3.315h.332l1.363-3.315h-.663l-.884 2.185zm-7.477-.546c0 .911.737 1.676 1.658 1.676.294 0 .552-.073.81-.182v-.729a.965.965 0 01-.737.365c-.589 0-1.068-.438-1.068-1.02V7.75c-.037-.583.442-1.093 1.031-1.13.295 0 .59.146.774.365v-.729c-.221-.145-.516-.182-.774-.182-.957-.073-1.694.692-1.694 1.64zm-1.142-.4c-.368-.146-.479-.219-.479-.401.037-.219.221-.4.442-.364.184 0 .368.109.516.255l.331-.437c-.258-.219-.589-.365-.921-.365a.94.94 0 00-.994.875v.036c0 .437.184.692.773.874.148.037.295.11.442.182a.381.381 0 01.185.328c0 .255-.221.474-.442.474h-.037a.727.727 0 01-.663-.437l-.405.4c.221.4.663.62 1.105.62.589.036 1.068-.401 1.105-.984v-.11c-.037-.436-.221-.655-.958-.946zm-2.136 2.003h.626V6.075h-.626v3.242zM459 6.075h1.105c.884.036 1.584.765 1.547 1.64 0 .473-.221.91-.589 1.238-.332.255-.737.4-1.142.364H459V6.075zm.81 2.695c.295.037.627-.072.848-.254.221-.219.331-.51.331-.838 0-.292-.11-.583-.331-.802a1.177 1.177 0 00-.848-.255h-.184v2.15h.184z" fill="#000"/><path fill-rule="evenodd" clip-rule="evenodd" d="M469.534 6a1.68 1.68 0 00-1.694 1.676c0 .91.736 1.675 1.694 1.712.958.036 1.694-.729 1.731-1.676-.037-.947-.773-1.712-1.731-1.712z" fill="url(#paint4_linear)"/><rect x="163.25" y=".25" width="23.5" height="15.5" rx="1.75" fill="#1F72CD" stroke="#D9D9D9" stroke-width=".5"/><path fill-rule="evenodd" clip-rule="evenodd" d="M167.257 5L165 10.142h2.702l.335-.82h.766l.335.82h2.974v-.626l.265.626h1.539l.265-.639v.639h6.185l.753-.799.704.799 3.177.007-2.264-2.564L185 5h-3.128l-.732.784-.682-.784h-6.729l-.578 1.327L172.559 5h-2.696v.604l-.3-.604h-2.306zm.523.73h1.317l1.497 3.487V5.73h1.443l1.157 2.5 1.065-2.5h1.436v3.69h-.874l-.007-2.891-1.273 2.89h-.782l-1.28-2.89v2.89h-1.798l-.34-.826H167.5l-.34.826h-.963l1.583-3.689zm12.266 0h-3.552v3.688h3.497l1.128-1.222 1.086 1.222h1.136l-1.651-1.833 1.651-1.855h-1.087l-1.121 1.208-1.087-1.208zm-11.625.624l-.607 1.474h1.212l-.605-1.474zm8.95.814v-.674h2.217l.967 1.077-1.01 1.083h-2.174v-.735h1.938v-.751h-1.938z" fill="#fff"/><rect x="359.25" y=".25" width="23.5" height="15.5" rx="1.75" fill="#fff" stroke="#D9D9D9" stroke-width=".5"/><path fill-rule="evenodd" clip-rule="evenodd" d="M369.979 13.175h1.822A5.197 5.197 0 00377 8.132v-.044c-.044-2.831-2.355-5.132-5.199-5.087h-2.044c-2.71.088-4.843 2.389-4.754 5.131 0 2.743 2.221 5 4.976 5.043zm-4.088-5.087c0-2.3 1.911-4.203 4.222-4.203 2.31 0 4.221 1.903 4.221 4.203 0 2.3-1.911 4.203-4.221 4.203-2.311 0-4.222-1.903-4.222-4.203zm4.888 2.831V5.301c1.555.398 2.533 1.946 2.133 3.495a2.887 2.887 0 01-2.133 2.123zm-3.421-3.539a2.907 2.907 0 002.088 3.54V5.3a2.914 2.914 0 00-2.088 2.08z" fill="#0069AA"/><rect x="947.25" y=".25" width="23.5" height="15.5" rx="1.75" fill="#fff" stroke="#D9D9D9" stroke-width=".5"/><path d="M951 3.168c.222-.114.475-.068.713-.073.546.015 1.092-.013 1.637.011a.514.514 0 01.491.441c.171.83.328 1.663.496 2.494-.278-.974-1.011-1.77-1.872-2.275-.455-.274-.963-.433-1.465-.598z" fill="#F4A929"/><path d="M955.745 3.097c.472.006.944.004 1.416 0-.718 1.715-1.387 3.45-2.12 5.158-.461-.014-.922-.007-1.382-.007-.409-1.491-.789-2.99-1.194-4.482.861.505 1.594 1.3 1.872 2.275.041.189.071.382.107.573.43-1.173.866-2.345 1.301-3.517zM957.691 3.095c.444.004.889.004 1.333 0-.273 1.719-.56 3.435-.827 5.154h-1.328c.255-1.72.554-3.434.822-5.154zM960.288 3.419c.797-.523 1.838-.508 2.719-.218-.04.38-.104.758-.17 1.134-.468-.225-1.015-.325-1.524-.194-.24.057-.477.355-.278.58.411.42 1.057.515 1.443.972.448.438.432 1.176.126 1.688-.322.541-.943.824-1.548.905-.683.072-1.395.029-2.036-.236.068-.384.125-.77.194-1.154.554.286 1.197.43 1.815.293.209-.07.426-.242.407-.488-.069-.293-.375-.418-.613-.551-.462-.227-.959-.506-1.167-1.005-.258-.631.084-1.37.632-1.726zM964.659 3.623c.088-.237.264-.495.542-.51.408-.028.818-.004 1.226-.011.366 1.716.719 3.433 1.079 5.15l-1.231.001a39.338 39.338 0 01-.166-.776c-.569 0-1.138 0-1.706-.003-.091.26-.186.52-.283.778l-1.396.001c.643-1.543 1.293-3.085 1.935-4.63z" fill="#1B4DA2"/><path d="M964.79 6.414c.248-.637.451-1.293.729-1.919.082.648.243 1.282.376 1.92h-1.105z" fill="#fff"/><path d="M959.527 11.709c.496.008 1.134-.075 1.45.404.334.598.087 1.469-.533 1.78-.397.21-.865.12-1.295.14.132-.774.234-1.553.378-2.324z" fill="#161314"/><path d="M961.737 11.713c.391 0 .783-.001 1.175.002l-.065.276c-.285.014-.571.004-.856.006a7.25 7.25 0 01-.112.69l.67.001-.003.294c-.233 0-.466-.002-.7-.004-.048.264-.093.529-.136.795.303.004.606.003.91.004l-.056.236c-.396.044-.797.01-1.195.02.116-.775.236-1.549.368-2.32z" fill="#181415"/><path d="M962.942 14.038c.129-.775.247-1.552.37-2.327.334.014.7-.053 1.001.13.349.275.178.833-.203.989.427.174.418.807.058 1.043-.357.248-.82.132-1.226.165z" fill="#191617"/><path d="M965.106 11.726l.317-.022c-.125.78-.238 1.56-.374 2.336l-.308-.009c.14-.764.248-1.536.365-2.305z" fill="#181415"/><path d="M965.827 11.72c.552-.02 1.104 0 1.657-.007l.001.285c-.235 0-.47-.002-.704-.004-.132.675-.206 1.36-.336 2.033a29.38 29.38 0 01-.301.02c.107-.684.207-1.368.325-2.05-.235 0-.47 0-.704-.002l.062-.274z" fill="#171314"/><path d="M959.786 11.988c.345-.004.784-.016.956.354.135.438.048.995-.356 1.267-.257.194-.593.167-.896.172.11-.596.183-1.197.296-1.793zM963.558 11.985c.244-.01.635-.043.647.3-.004.386-.446.433-.739.429.029-.244.062-.485.092-.729zM963.419 12.96c.225.023.553-.047.67.204.124.198.012.475-.194.567-.196.075-.411.057-.616.071.051-.28.101-.56.14-.843z" fill="#fff"/><rect x="849.25" y=".25" width="23.5" height="15.5" rx="1.75" fill="#fff" stroke="#D9D9D9" stroke-width=".5"/><path fill-rule="evenodd" clip-rule="evenodd" d="M856.25 10.542h-1.471l-1.103-4.333c-.053-.2-.164-.376-.327-.459A4.703 4.703 0 00852 5.292v-.167h2.37c.327 0 .572.25.613.542l.573 3.125 1.47-3.667h1.431l-2.207 5.417zm3.025 0h-1.39l1.144-5.417h1.39l-1.144 5.417zm2.941-3.916c.041-.292.286-.459.573-.459.449-.042.939.042 1.348.25l.246-1.166A3.431 3.431 0 00863.116 5c-1.349 0-2.33.75-2.33 1.792 0 .792.695 1.208 1.186 1.458.53.25.735.417.694.667 0 .375-.409.541-.817.541-.491 0-.981-.125-1.43-.333l-.246 1.167a3.912 3.912 0 001.512.292c1.512.04 2.452-.709 2.452-1.834 0-1.417-1.921-1.5-1.921-2.124zM869 10.542l-1.103-5.417h-1.185a.616.616 0 00-.573.417l-2.043 5h1.431l.285-.792h1.758l.163.792H869zm-2.084-3.958l.408 2.041h-1.144l.736-2.041z" fill="#172B85"/><rect x="287.5" y=".5" width="69" height="47" rx="5.5" fill="#fff" stroke="#D9D9D9"/><path fill-rule="evenodd" clip-rule="evenodd" d="M305.805 30.639c0 .977-.571 3.41-4.041 3.41h-2.72v-.255l.039-.004c.56-.057.848-.086.848-.747V28.31c0-.841-.451-.841-.887-.841v-.256h2.84a3.578 3.578 0 013.921 3.426zm-4.147-3.062a6.63 6.63 0 00-.767 0l-.06 5.319c0 .751.541.841 1.022.841a2.72 2.72 0 002.81-3.005 3.003 3.003 0 00-3.005-3.155z" fill="#211E1F"/><path d="M308.239 34.05v-.256h-.165c-.286 0-.496 0-.496-.33V29.571a.405.405 0 00-.18 0c-.344.139-.695.26-1.052.36v.15c.361.196.511.256.511.692v2.644c0 .33-.195.33-.466.33h-.195v.301h2.103-.06zM307.188 28.129a.481.481 0 100-.963.481.481 0 000 .963zM313.426 33.851h-.166c-.285 0-.495 0-.495-.33v-2.48c0-.75-.286-1.367-1.127-1.367-.628.051-1.22.31-1.683.736v-.63-.106c-.422.18-.853.335-1.292.466v.195c.45.18.571.286.571.646v2.585c0 .33-.196.33-.481.33h-.166v.15h2.089v-.255h-.18c-.271 0-.481 0-.481-.33v-2.825a2.452 2.452 0 011.127-.48.796.796 0 01.901.84v2.525c0 .33-.195.33-.465.33h-.181v.196h2.029v-.196z" fill="#211E1F"/><path fill-rule="evenodd" clip-rule="evenodd" d="M317.076 33.148a2.3 2.3 0 01-1.818 1.111 1.966 1.966 0 01-1.924-2.043c0-1.923 1.292-2.494 1.969-2.494a1.505 1.505 0 011.652 1.502v.18h-2.839c-.017.19-.017.381 0 .572a1.623 1.623 0 001.502 1.682c.51-.028.987-.26 1.322-.646l.136.136zm-1.817-3.2h.037-.037zm.048 0h-.011.038-.027zm0 0a.827.827 0 01.794.902c0 .12 0 .24-.271.24h-1.623c.119-.695.514-1.128 1.1-1.141z" fill="#211E1F"/><path d="M317.512 33.85h-.27v.196h2.539v-.256h-.541c-.285 0-.481 0-.481-.33v-2.24a.826.826 0 01.722-.81c.345 0 .345.24.646.24a.465.465 0 00.45-.496.523.523 0 00-.556-.526c-.586 0-1.006.631-1.247 1.007v-.872c0-.105 0-.135-.09-.135s-.481.256-1.202.556v.15c.15 0 .511.136.511.436v2.75c-.015.33-.21.33-.481.33zM322.243 33.944a1.307 1.307 0 01-1.232-1.202h-.18l.12 1.112c.361.212.769.33 1.187.346 1.157 0 1.683-.691 1.683-1.337 0-1.503-2.269-1.188-2.269-2.33a.69.69 0 01.766-.646 1.022 1.022 0 011.067.962h.256l-.076-.991a2.533 2.533 0 00-1.111-.286 1.336 1.336 0 00-1.503 1.262c0 1.503 2.134 1.202 2.134 2.36a.706.706 0 01-.842.75zM332.447 33.731l.225-1.427h-.225a1.999 1.999 0 01-1.968 1.698 3.185 3.185 0 01-2.915-3.396 2.778 2.778 0 012.749-3.11 1.879 1.879 0 012.104 1.608h.24l-.105-1.398a6.91 6.91 0 00-2.299-.526 3.606 3.606 0 00-3.711 3.456 3.486 3.486 0 003.741 3.681 5.53 5.53 0 002.164-.586zM335.106 34.046v-.255h-.166c-.285 0-.496 0-.496-.33V26.563s-.105 0-.21.105a5.63 5.63 0 01-1.007.42v.166c.361.105.511.12.511.766v5.44c0 .33-.195.33-.466.33h-.195v.255h2.104-.075zM335.662 30.576v2.51a1.049 1.049 0 001.067 1.172 2.642 2.642 0 001.742-.827v.796c.463-.138.935-.243 1.413-.315v-.165h-.316c-.165 0-.285 0-.285-.18V29.96v-.18s-.646.075-1.503.135v.18c.346.09.812.196.812.391v2.645a2.21 2.21 0 01-1.172.586c-.857 0-.857-.842-.857-1.127v-2.525c0-.21 0-.285-.105-.285l-1.262.075v.18c.466.045.466.286.466.541z" fill="#211E1F"/><path fill-rule="evenodd" clip-rule="evenodd" d="M340.456 32.246V28.04c0-.58-.139-.614-.526-.71l-.044-.01v-.166c.35-.102.688-.243 1.006-.42l.226-.106c.075 0 .075.135.075.135v3.591c.405-.4.935-.65 1.502-.706a1.905 1.905 0 011.818 2.059 2.479 2.479 0 01-2.344 2.569 2.885 2.885 0 01-1.352-.346l-.3.226-.196-.106c.093-.596.138-1.199.135-1.803zm1.716-2.132c-.356.04-.687.205-.932.466l-.075 2.374c.023.546.46.984 1.007 1.007 1.066 0 1.502-1.037 1.502-1.908a1.863 1.863 0 00-1.502-1.939z" fill="#211E1F"/><path d="M299.811 36.242h-.781v.21h.105c.196 0 .361 0 .376.285v2.78c0 .27-.18.285-.376.285H299v.256h1.623v-.195h-.045c-.196 0-.376 0-.376-.286v-2.87c0-.27.18-.285.376-.285h.105v-.21l-.872.03zM304.485 36.24h-.751v.21h.135c.166 0 .436 0 .451.481v1.954l-2.344-2.63h-1.112v.21h.09a.453.453 0 01.466.451v2.254c0 .42-.105.646-.466.646h-.12v.24h1.413v-.195h-.121c-.39 0-.465-.135-.48-.6v-2.21l2.704 3.006h.256V37.05c0-.616.24-.646.45-.646h.105v-.21l-.676.045zM308.842 36.047c0 .135-.12.135-.27.135h-2.78c-.135 0-.225 0-.27-.135h-.166c.008.145.008.29 0 .436v.45h.211c.09-.39.09-.465.481-.465h.841v2.825c0 .405-.12.405-.421.42h-.12v.346h1.758v-.195h-.12c-.256 0-.421 0-.421-.436v-2.9h.842c.345 0 .36.285.375.496l.196-.075v-.436-.436h-.151l.015-.03zM312.027 39.038c-.151.601-.421.631-1.052.631-.346 0-.631 0-.631-.33V38.12h.616c.36 0 .36.196.391.511h.195v-.6-.632h-.21c0 .286-.091.436-.391.451h-.616V36.5h.721c.541 0 .586.255.616.6h.18V36.26h-2.689v.21h.09c.195 0 .361 0 .376.285v2.78c0 .27-.181.285-.376.285h-.09v.24h2.915c0-.27.12-.555.18-.84h-.165l-.06-.18z" fill="#211E1F"/><path fill-rule="evenodd" clip-rule="evenodd" d="M314.671 38.12l.901 1.337a.556.556 0 00.556.406v.195l-.586-.09h-.511a14.58 14.58 0 01-1.112-1.713h-.315v1.202c.015.406.165.406.421.406h.09v.195h-1.683v-.285h.12c.195 0 .361-.09.361-.271v-2.705c0-.375-.196-.375-.361-.375h-.12v-.21H314.115c.661 0 1.292.195 1.292.961-.01.443-.309.828-.736.947zm-.841-.103c.525 0 .796-.18.796-.811a.69.69 0 00-.751-.691h-.286v1.502h.241z" fill="#211E1F"/><path d="M320.533 36.422v-.21h-1.413v.21h.136c.165 0 .435 0 .45.48v1.954l-2.374-2.63h-1.111v.21h.09a.45.45 0 01.465.452v2.238c0 .436-.105.662-.465.662h-.09v.27h1.412v-.195h-.12c-.391 0-.466-.136-.466-.601v-2.21l2.689 3.006h.256V37.052c0-.615.24-.645.451-.645h.105l-.015.015z" fill="#211E1F"/><path fill-rule="evenodd" clip-rule="evenodd" d="M323.707 39.18c.065.137.13.275.13.397a.33.33 0 00.496.285v.195H322.8v-.195h.075c.135 0 .316-.03.316-.135a1.632 1.632 0 00-.105-.376l-.211-.6h-1.172l-.165.54a3.188 3.188 0 00-.12.406c0 .165.21.165.375.165h.091v.195h-1.217v-.27a.465.465 0 00.45-.33l.842-2.45c.086-.22.156-.446.21-.676.174-.054.341-.13.496-.225v.135l.977 2.795c.019.047.042.096.065.145zm-1.567-2.291l-.466 1.427h.931l-.465-1.427z" fill="#211E1F"/><path d="M327.336 36.047c0 .135-.12.135-.27.135h-2.765c-.135 0-.24 0-.27-.135h-.18c.015.145.015.291 0 .436v.466h.21c.075-.391.075-.466.466-.466h.856v2.825c0 .405-.135.405-.421.42h-.135v.33H326.6v-.194h-.12c-.255 0-.421 0-.421-.436v-2.9h.857c.33 0 .345.285.36.496l.196-.075a3.958 3.958 0 010-.436v-.436h-.151l.015-.03zM328.48 36.242h-.797v.21h.09c.196 0 .376 0 .376.285v2.78c0 .27-.18.285-.376.285h-.09v.256h1.623v-.195h-.105c-.196 0-.361 0-.361-.286v-2.87c0-.27.165-.285.361-.285h.105v-.21l-.826.03z" fill="#211E1F"/><path fill-rule="evenodd" clip-rule="evenodd" d="M330.018 36.714a1.97 1.97 0 011.407-.576A1.895 1.895 0 01333.498 38a1.985 1.985 0 01-2.043 2.059 1.907 1.907 0 01-2.014-1.939 1.969 1.969 0 01.577-1.407zm2.682 1.408c0-.782-.42-1.698-1.277-1.698-.916 0-1.187.811-1.187 1.517 0 .947.271 1.834 1.277 1.834 1.007 0 1.187-.872 1.187-1.653z" fill="#211E1F"/><path d="M337.917 36.422v-.21H336.519v.21h.135c.151 0 .436 0 .436.48v1.954l-2.344-2.63h-1.097v.21h.091a.437.437 0 01.45.452v2.253c0 .421-.105.647-.45.647h-.091v.27H335.062v-.195h-.105c-.406 0-.466-.136-.481-.601v-2.21l2.689 3.006h.241a2.887 2.887 0 010-.526v-2.48c0-.615.225-.645.451-.645h.105l-.045.015z" fill="#211E1F"/><path fill-rule="evenodd" clip-rule="evenodd" d="M341.026 39.036c.056.183.121.364.195.54a.315.315 0 00.406.285v.197h-1.533v-.196h.076c.12 0 .3-.03.3-.135a1.882 1.882 0 00-.105-.376l-.195-.6h-.977l-.165.54c-.056.13-.097.266-.121.406 0 .165.196.165.376.165v.195h-1.217v-.27a.466.466 0 00.436-.33l.856-2.45a5.15 5.15 0 00.211-.676c.168-.057.329-.133.48-.225v.135l.977 2.795zm-1.979-.72h.932l-.451-1.427-.481 1.427z" fill="#211E1F"/><path d="M344.676 39.021a1.151 1.151 0 01-.165.376.767.767 0 01-.496.27h-.691c-.165 0-.301-.075-.301-.285v-2.69c0-.27.136-.27.331-.27h.165v-.21h-1.653v.21h.091c.195 0 .375 0 .375.285v2.735c0 .315-.18.33-.375.33h-.091v.286h2.81c0-.3.135-.601.196-.902h-.196v-.135z" fill="#211E1F"/><path fill-rule="evenodd" clip-rule="evenodd" d="M344.135 36.66a.556.556 0 01.541-.565.539.539 0 01.571.556.557.557 0 01-1.112.01zm.09-.056a.45.45 0 10.902 0 .45.45 0 00-.902 0z" fill="#211E1F"/><path fill-rule="evenodd" clip-rule="evenodd" d="M344.918 36.499a.166.166 0 01-.135.165v.12l.12.136h-.105c-.039 0-.072-.05-.118-.123-.026-.04-.055-.085-.092-.133v.18h-.151v-.495h.286c.105 0 .195.045.195.15zm-.301-.09v.255h.015c.105 0 .105-.06.105-.136a.108.108 0 00-.029-.09.106.106 0 00-.091-.03z" fill="#211E1F"/><path d="M324.182 25.92a9.842 9.842 0 009.887-9.376 9.66 9.66 0 00-9.887-9.541h-4.507a9.316 9.316 0 00-9.526 9.54c.057 5.213 4.313 9.402 9.526 9.377h4.507z" fill="#0069AA"/><path fill-rule="evenodd" clip-rule="evenodd" d="M319.769 7.786a8.655 8.655 0 100 17.31 8.655 8.655 0 000-17.31zm-5.485 8.653a5.498 5.498 0 013.516-5.124v10.248a5.484 5.484 0 01-3.516-5.124zm7.439-5.124v10.248a5.484 5.484 0 000-10.248z" fill="#fff"/><path d="M324.182 25.92a9.842 9.842 0 009.887-9.376 9.66 9.66 0 00-9.887-9.541h-4.507a9.316 9.316 0 00-9.526 9.54c.057 5.213 4.313 9.402 9.526 9.377h4.507z" fill="#0069AA"/><path fill-rule="evenodd" clip-rule="evenodd" d="M319.769 7.786a8.655 8.655 0 100 17.31 8.655 8.655 0 000-17.31zm-5.485 8.653a5.498 5.498 0 013.516-5.124v10.248a5.484 5.484 0 01-3.516-5.124zm7.439-5.124v10.248a5.484 5.484 0 000-10.248z" fill="#fff"/><rect x="875.5" y=".5" width="69" height="47" rx="5.5" fill="#fff" stroke="#D9D9D9"/><path d="M884 8.503c.665-.343 1.426-.204 2.14-.217 1.637.042 3.276-.04 4.913.033.737-.004 1.369.609 1.472 1.323.513 2.49.984 4.988 1.488 7.484-.833-2.924-3.033-5.31-5.617-6.829-1.367-.82-2.891-1.297-4.396-1.794z" fill="#F4A929"/><path d="M898.237 8.292c1.419.017 2.835.01 4.251 0-2.153 5.147-4.162 10.352-6.361 15.479-1.383-.043-2.766-.023-4.149-.023-1.225-4.475-2.367-8.973-3.582-13.45 2.584 1.517 4.784 3.905 5.617 6.828.125.567.214 1.146.323 1.72 1.29-3.52 2.597-7.037 3.901-10.554zM904.078 8.286c1.334.01 2.667.01 4.001 0-.82 5.156-1.683 10.306-2.483 15.465a801.63 801.63 0 01-3.984 0c.764-5.163 1.663-10.306 2.466-15.465zM911.872 9.257c2.39-1.57 5.515-1.524 8.159-.655-.122 1.142-.313 2.275-.51 3.404-1.406-.675-3.046-.974-4.574-.582-.721.17-1.432 1.066-.833 1.738 1.232 1.261 3.171 1.548 4.33 2.92 1.343 1.314 1.294 3.527.379 5.065-.968 1.623-2.832 2.472-4.646 2.716-2.052.214-4.188.086-6.111-.708.204-1.152.375-2.311.582-3.464 1.663.86 3.593 1.291 5.446.88.629-.211 1.278-.728 1.222-1.466-.207-.879-1.126-1.254-1.841-1.653-1.386-.681-2.877-1.518-3.5-3.016-.773-1.893.251-4.109 1.897-5.179zM924.986 9.87c.267-.712.794-1.486 1.627-1.528 1.225-.086 2.456-.014 3.681-.037 1.096 5.15 2.157 10.303 3.237 15.453l-3.695.006c-.174-.774-.339-1.55-.497-2.331-1.709 0-3.414.003-5.12-.007-.273.78-.556 1.561-.849 2.335-1.396 0-2.792 0-4.189.003 1.93-4.633 3.879-9.259 5.805-13.895z" fill="#1B4DA2"/><path d="M925.381 18.246c.745-1.913 1.354-3.882 2.187-5.759.247 1.943.731 3.846 1.129 5.762-1.106 0-2.209 0-3.316-.003z" fill="#fff"/><path d="M909.587 34.133c1.488.026 3.404-.224 4.353 1.215 1.001 1.794.26 4.405-1.601 5.337-1.191.635-2.594.362-3.885.421.395-2.32.702-4.659 1.133-6.973z" fill="#161314"/><path d="M916.218 34.146c1.176 0 2.351-.004 3.527.006-.05.208-.145.62-.195.827-.856.043-1.712.013-2.568.02a22.763 22.763 0 01-.336 2.067c.669.004 1.337.004 2.009.007 0 .22-.007.662-.007.882-.701-.003-1.399-.006-2.101-.013-.144.794-.279 1.587-.408 2.384.909.013 1.818.01 2.73.013l-.168.708c-1.189.132-2.391.03-3.586.06.349-2.325.708-4.646 1.103-6.961z" fill="#181415"/><path d="M919.837 41.123c.385-2.325.741-4.656 1.109-6.984 1.001.043 2.101-.158 3.003.389 1.047.826.534 2.502-.609 2.97 1.281.523 1.255 2.423.175 3.13-1.071.745-2.46.396-3.678.495z" fill="#191617"/><path d="M926.33 34.185l.951-.066c-.375 2.338-.714 4.68-1.123 7.01l-.925-.026c.422-2.295.744-4.61 1.097-6.918z" fill="#181415"/><path d="M928.493 34.169c1.656-.06 3.312-.003 4.972-.023 0 .214 0 .642.003.856a451.44 451.44 0 01-2.114-.013c-.395 2.025-.615 4.08-1.007 6.1-.227.017-.679.047-.902.06.319-2.051.619-4.106.974-6.15-.704 0-1.409-.004-2.114-.007.046-.207.142-.619.188-.823z" fill="#171314"/><path d="M910.364 34.972c1.037-.013 2.354-.05 2.871 1.06.405 1.318.142 2.987-1.07 3.803-.77.583-1.778.5-2.687.517.329-1.787.547-3.592.886-5.38zM921.684 34.962c.731-.03 1.906-.128 1.943.903-.014 1.155-1.341 1.297-2.22 1.284.089-.731.188-1.456.277-2.187zM921.266 37.886c.675.073 1.659-.138 2.012.616.372.593.036 1.422-.583 1.699-.586.227-1.232.171-1.847.214.151-.843.303-1.683.418-2.529z" fill="#fff"/><rect x="189.5" y=".5" width="69" height="47" rx="5.5" fill="url(#paint5_linear)" stroke="#D9D9D9"/><path d="M246.69 18.503a5.09 5.09 0 00-.38-1.924 4.597 4.597 0 00-1.093-1.584c-.531-.506-1.109-.863-1.742-1.068-.634-.198-1.497-.301-2.582-.301H226.26V23.38h14.625c1.085 0 1.948-.103 2.582-.3.633-.199 1.211-.555 1.742-1.062.483-.46.847-.99 1.093-1.584a5.074 5.074 0 00.388-1.932zM246.69 29.565a5.16 5.16 0 00-.38-1.932 4.626 4.626 0 00-1.093-1.591c-.531-.507-1.109-.863-1.742-1.07-.634-.205-1.497-.3-2.582-.3H226.26v9.771h14.625c1.085 0 1.948-.103 2.582-.3a4.455 4.455 0 001.742-1.07c.483-.459.847-.99 1.093-1.591a4.882 4.882 0 00.388-1.917zM224.946 23.381C224.653 17.071 220.115 13 212.981 13 205.616 13 201 17.355 201 24.038c0 6.897 4.799 11.039 11.981 11.039 7.19 0 11.679-4.094 11.965-10.405h-11.585v-1.299h11.585v.008z" fill="#fff"/><rect x="777.5" y=".5" width="69" height="47" rx="5.5" fill="#fff" stroke="#D9D9D9"/><path fill-rule="evenodd" clip-rule="evenodd" d="M798.251 32.517h-4.241l-3.18-12.132c-.151-.558-.472-1.052-.943-1.284A13.801 13.801 0 00786 17.817v-.467h6.831c.943 0 1.65.701 1.768 1.516l1.65 8.751 4.239-10.267h4.122l-6.359 15.166zm8.717 0h-4.005l3.297-15.167h4.005l-3.297 15.166zm8.479-10.966c.118-.816.825-1.284 1.65-1.284 1.296-.117 2.708.118 3.887.7l.707-3.265a10.14 10.14 0 00-3.652-.702c-3.887 0-6.715 2.1-6.715 5.017 0 2.218 2.003 3.382 3.418 4.084 1.53.7 2.119 1.166 2.001 1.866 0 1.05-1.178 1.517-2.355 1.517-1.414 0-2.828-.35-4.123-.935l-.707 3.268c1.414.582 2.944.817 4.359.817 4.358.115 7.067-1.984 7.067-5.134 0-3.967-5.537-4.2-5.537-5.949zM835 32.517l-3.18-15.167h-3.416c-.707 0-1.414.467-1.65 1.166l-5.888 14h4.123l.823-2.216h5.065l.472 2.216H835zm-6.006-11.083l1.176 5.716h-3.298l2.122-5.716z" fill="#172B85"/><rect x="679.5" y=".5" width="69" height="47" rx="5.5" fill="#fff" stroke="#D9D9D9"/><path d="M699.867 40.78v-2.256a1.332 1.332 0 00-1.414-1.429 1.393 1.393 0 00-1.263.64 1.319 1.319 0 00-1.188-.64 1.186 1.186 0 00-1.053.535v-.444h-.782v3.594h.79v-1.992a.842.842 0 01.879-.955c.519 0 .782.338.782.947v2h.79v-1.992a.837.837 0 01.217-.683.852.852 0 01.663-.272c.534 0 .789.338.789.947v2h.79zm11.685-3.594h-1.279v-1.09h-.789v1.09h-.729v.714h.729v1.64c0 .834.323 1.33 1.248 1.33a1.84 1.84 0 00.978-.278l-.226-.67c-.21.126-.448.196-.692.204-.391 0-.519-.24-.519-.601V37.9h1.279v-.714zm6.669-.09a1.063 1.063 0 00-.947.526v-.436h-.775v3.594h.782v-2.015c0-.594.256-.925.767-.925.168-.002.334.028.489.09l.241-.737a1.676 1.676 0 00-.557-.097zm-10.083.376a2.689 2.689 0 00-1.466-.376c-.91 0-1.497.436-1.497 1.15 0 .587.437.948 1.241 1.06l.369.053c.428.06.631.173.631.376 0 .278-.286.436-.819.436-.43.012-.851-.12-1.196-.376l-.368.61a2.591 2.591 0 001.556.465c1.038 0 1.639-.488 1.639-1.173 0-.631-.473-.962-1.255-1.075l-.369-.053c-.338-.045-.609-.112-.609-.353 0-.263.256-.421.684-.421a2.32 2.32 0 011.121.308l.338-.631zm20.949-.376a1.058 1.058 0 00-.948.526v-.436h-.774v3.594h.782v-2.015c0-.594.255-.925.767-.925a1.28 1.28 0 01.489.09l.24-.737a1.67 1.67 0 00-.556-.097zm-10.076 1.887a1.807 1.807 0 00.54 1.369 1.824 1.824 0 001.377.518c.47.024.931-.129 1.294-.428l-.376-.632c-.271.206-.6.32-.94.323a1.153 1.153 0 010-2.3c.34.003.669.117.94.323l.376-.632a1.885 1.885 0 00-1.294-.428 1.813 1.813 0 00-1.792 1.146 1.807 1.807 0 00-.125.741zm7.324 0v-1.797h-.782v.436a1.373 1.373 0 00-1.136-.526 1.892 1.892 0 00-1.797 1.887 1.892 1.892 0 001.797 1.887 1.365 1.365 0 001.136-.526v.436h.782v-1.797zm-2.91 0a1.092 1.092 0 01.712-.96 1.09 1.09 0 011.375 1.45 1.093 1.093 0 01-1.794.324 1.064 1.064 0 01-.293-.814zm-9.437-1.887a1.889 1.889 0 00.053 3.774 2.182 2.182 0 001.473-.503l-.383-.58c-.297.239-.665.37-1.045.377a.998.998 0 01-1.075-.88h2.669c.007-.098.015-.196.015-.301-.008-1.12-.699-1.887-1.707-1.887zm-.015.699a.892.892 0 01.91.872h-1.865a.924.924 0 01.955-.872zm19.618 1.188v-3.24h-.782v1.879a1.365 1.365 0 00-1.136-.526 1.891 1.891 0 00-1.276 3.19c.335.352.792.56 1.276.584a1.365 1.365 0 001.136-.526v.436h.782v-1.797zm1.303 1.276a.36.36 0 01.335.496.37.37 0 01-.536.16.361.361 0 01-.165-.299.354.354 0 01.222-.329.371.371 0 01.144-.028zm0 .636a.27.27 0 00.196-.082.28.28 0 00-.088-.453.287.287 0 00-.218 0 .28.28 0 00.11.535zm.021-.446a.152.152 0 01.099.029.1.1 0 01.026.034.09.09 0 01.008.043.077.077 0 01-.006.037.095.095 0 01-.021.031.13.13 0 01-.078.033l.108.125h-.085l-.1-.124h-.033v.124h-.071v-.332h.153zm-.082.063v.088h.082a.078.078 0 00.044-.011.035.035 0 00.013-.015.042.042 0 00.004-.019.04.04 0 00-.004-.018.034.034 0 00-.013-.015.08.08 0 00-.044-.01h-.082zm-4.152-1.529a1.085 1.085 0 01.712-.96 1.09 1.09 0 011.375 1.45 1.093 1.093 0 01-2.026-.052c-.05-.14-.071-.29-.061-.438zm-26.408 0v-1.797h-.782v.436a1.357 1.357 0 00-1.135-.526 1.888 1.888 0 00-1.276 3.19c.334.351.791.56 1.276.584a1.36 1.36 0 001.135-.526v.436h.782v-1.797zm-2.91 0a1.085 1.085 0 01.713-.96 1.09 1.09 0 11-.056 2.026 1.078 1.078 0 01-.657-1.066z" fill="#231F20"/><path d="M719.723 9.796h-11.845V31.08h11.845V9.796z" fill="#FF5F00"/><path d="M708.63 20.437a13.521 13.521 0 015.17-10.642 13.536 13.536 0 100 21.285 13.521 13.521 0 01-5.17-10.642z" fill="#EB001B"/><path d="M735.701 20.437a13.532 13.532 0 01-7.62 12.175A13.533 13.533 0 01713.8 31.08a13.533 13.533 0 005.17-10.643 13.533 13.533 0 00-5.17-10.642 13.536 13.536 0 0121.901 10.642zM734.41 28.825v-.436h.176v-.088h-.448v.088h.176v.436h.096zm.869 0V28.3h-.137l-.158.361-.158-.361h-.137v.525h.097v-.396l.148.341h.1l.148-.342v.397h.097z" fill="#F79E1B"/><rect x="581.5" y=".5" width="69" height="47" rx="5.5" fill="#fff" stroke="#D9D9D9"/><g clip-path="url(#clip1)"><path d="M637.02 28.744v-.522h-.135l-.157.358-.156-.358h-.137v.522h.096v-.393l.147.339h.1l.147-.34v.394h.095zm-.861 0v-.432h.174v-.087h-.444v.087h.174v.432h.096z" fill="#0099DF"/><path d="M621.593 30.98h-11.746V9.87h11.746v21.11z" fill="#6C6BBD"/><path d="M610.592 20.424c0-4.282 2.005-8.096 5.127-10.554A13.364 13.364 0 00607.423 7C600.01 7 594 13.01 594 20.423c0 7.415 6.01 13.425 13.423 13.425a13.364 13.364 0 008.296-2.87 13.403 13.403 0 01-5.127-10.555z" fill="#EB001B"/><path d="M637.44 20.425c0 7.414-6.01 13.425-13.424 13.425a13.37 13.37 0 01-8.297-2.87 13.4 13.4 0 005.128-10.555 13.4 13.4 0 00-5.128-10.555A13.37 13.37 0 01624.016 7c7.414 0 13.424 6.01 13.424 13.425" fill="#0099DF"/><path d="M625.567 36.944c.156 0 .381.03.552.098l-.238.73a1.261 1.261 0 00-.485-.09c-.507 0-.76.328-.76.918v1.999h-.776v-3.566h.768v.433c.202-.314.493-.523.94-.523l-.001.002zm-2.865.797h-1.268v1.61c0 .358.126.597.515.597.201 0 .455-.067.685-.201l.224.663c-.246.172-.634.277-.969.277-.918 0-1.238-.493-1.238-1.32V37.74h-.724v-.708h.724v-1.08h.782v1.08h1.267v.709h.002zm-9.926.76c.083-.514.395-.865.947-.865.5 0 .821.313.902.865h-1.85.001zm2.655.314c-.007-1.112-.695-1.872-1.693-1.872-1.044 0-1.775.76-1.775 1.872 0 1.132.76 1.87 1.827 1.87.537 0 1.029-.134 1.461-.499l-.38-.574a1.697 1.697 0 01-1.036.373c-.5 0-.955-.231-1.066-.873h2.646c.008-.097.016-.193.016-.297zm3.407-.872a2.284 2.284 0 00-1.11-.306c-.425 0-.679.157-.679.418 0 .24.268.306.603.35l.366.052c.776.113 1.245.44 1.245 1.067 0 .679-.596 1.163-1.625 1.163-.582 0-1.119-.149-1.544-.462l.365-.605c.261.202.65.373 1.187.373.529 0 .812-.156.812-.432 0-.201-.201-.314-.626-.373l-.366-.052c-.798-.112-1.23-.47-1.23-1.051 0-.708.582-1.141 1.484-1.141.567 0 1.081.127 1.453.373l-.335.626zm9.564-.263a1.173 1.173 0 00-.445.084 1.064 1.064 0 00-.591.598c-.113.3-.113.63 0 .93a1.064 1.064 0 00.591.599c.286.112.604.112.89 0a1.066 1.066 0 00.596-.598c.114-.3.114-.63 0-.93a1.084 1.084 0 00-.596-.599 1.167 1.167 0 00-.444-.084h-.001zm.001-.736c.263-.003.524.046.768.144a1.823 1.823 0 011.015.992c.194.48.194 1.016 0 1.495a1.827 1.827 0 01-1.015.993 2.13 2.13 0 01-1.537 0 1.87 1.87 0 01-.608-.396 1.844 1.844 0 01-.401-.597 1.984 1.984 0 010-1.495 1.816 1.816 0 011.01-.992c.244-.098.505-.147.768-.144zm-20.158 1.872c0-.627.41-1.141 1.081-1.141.641 0 1.074.492 1.074 1.14 0 .65-.433 1.14-1.074 1.14-.671 0-1.081-.513-1.081-1.14zm2.886 0v-1.783h-.775v.433c-.247-.321-.619-.523-1.126-.523-.999 0-1.782.782-1.782 1.872s.781 1.872 1.782 1.872c.507 0 .879-.202 1.126-.523v.433h.775v-1.782zm-4.37 1.782V38.36c0-.842-.536-1.41-1.401-1.417-.455-.007-.925.134-1.253.634-.246-.395-.634-.634-1.179-.634-.379 0-.752.112-1.043.53v-.44h-.775v3.564h.781v-1.976c0-.62.343-.948.873-.948.514 0 .775.336.775.94v1.984h.782v-1.976c0-.62.359-.948.872-.948.531 0 .784.336.784.94v1.984h.784zm24.442-.268v.087h.081a.08.08 0 00.043-.012.037.037 0 00.014-.014.041.041 0 00.004-.019.04.04 0 00-.004-.018.043.043 0 00-.014-.014.071.071 0 00-.043-.011h-.081zm.081-.062a.151.151 0 01.098.028.096.096 0 01.034.077.092.092 0 01-.007.037.079.079 0 01-.02.03.139.139 0 01-.078.033l.108.124h-.083l-.1-.123h-.033v.123h-.071v-.329h.152zm-.021.441a.273.273 0 00.252-.167.284.284 0 00.022-.108.281.281 0 00-.168-.252.274.274 0 00-.215 0 .274.274 0 00-.089.058.28.28 0 000 .39.286.286 0 00.198.081v-.002zm0-.627c.048 0 .096.009.14.028a.35.35 0 01.22.326.342.342 0 01-.105.25.366.366 0 01-.59-.112.36.36 0 010-.275.346.346 0 01.192-.189.361.361 0 01.143-.028" fill="#231F20"/></g><rect x="483.5" y=".5" width="69" height="47" rx="5.5" fill="#fff" stroke="#D9D9D9"/><path d="M540.133 34.135A6.865 6.865 0 01533.268 41H496V13.866A6.865 6.865 0 01502.865 7h37.267v27.135h.001z" fill="#fff"/><path d="M527.983 24.596c1.064.023 2.135-.047 3.195.036 1.074.2 1.333 1.826.379 2.358-.651.35-1.424.13-2.13.193h-1.444v-2.587zm3.811-2.929c.236.835-.569 1.585-1.373 1.47h-2.438c.017-.788-.034-1.642.025-2.388.977.028 1.962-.056 2.934.044.417.105.766.448.852.874zm5.868-12.379c.046 1.594.007 3.273.02 4.9-.003 6.612.006 13.225-.005 19.838-.043 2.478-2.24 4.632-4.701 4.681-2.463.01-4.927.002-7.391.005v-9.998c2.684-.014 5.37.028 8.054-.02 1.245-.079 2.608-.9 2.666-2.27.147-1.376-1.151-2.328-2.382-2.478-.474-.012-.46-.138 0-.193 1.174-.254 2.097-1.47 1.751-2.687-.294-1.28-1.71-1.776-2.887-1.774-2.4-.016-4.801-.002-7.202-.007.016-1.866-.032-3.734.026-5.6.19-2.433 2.442-4.44 4.869-4.396h7.182v-.001z" fill="url(#paint6_linear)"/><path d="M498.458 13.938c.062-2.475 2.267-4.61 4.725-4.647 2.455-.007 4.91 0 7.364-.003-.007 8.279.013 16.558-.01 24.837-.095 2.444-2.276 4.54-4.708 4.583-2.459.009-4.918 0-7.377.003V28.377c2.388.564 4.893.805 7.33.43 1.457-.234 3.051-.95 3.544-2.46.363-1.293.158-2.654.212-3.98v-3.082h-4.217c-.019 2.038.039 4.08-.03 6.115-.114 1.25-1.353 2.046-2.533 2.003-1.463.016-4.363-1.06-4.363-1.06-.007-3.818.043-8.6.063-12.405z" fill="url(#paint7_linear)"/><path d="M512.12 20.528c-.222.047-.045-.756-.102-1.06.016-1.927-.031-3.856.026-5.781.19-2.444 2.459-4.456 4.895-4.399h7.175c-.006 8.279.014 16.559-.01 24.837-.094 2.444-2.276 4.54-4.708 4.583-2.459.01-4.918.001-7.378.004V27.389c1.68 1.378 3.963 1.593 6.055 1.596 1.578 0 3.146-.243 4.678-.607v-2.075c-1.726.86-3.756 1.407-5.67.913-1.335-.332-2.304-1.622-2.282-3-.155-1.433.685-2.946 2.093-3.372 1.748-.547 3.653-.128 5.292.583.351.184.707.412.567-.175v-1.63c-2.741-.652-5.657-.892-8.41-.183-.797.225-1.574.566-2.221 1.09v-.001z" fill="url(#paint8_linear)"/><rect x="385.5" y=".5" width="69" height="47" rx="5.5" fill="#fff" stroke="#D9D9D9"/><path d="M454 29v13c0 3-2.5 5-5 5h-40c4.017-.57 9.853-1.463 16-3 6-1.5 10-3 12.5-4 3.114-1.246 9.273-5 11.5-6.5 1.617-1.089 3.5-2.5 5-4.5z" fill="#FF5000"/><path fill-rule="evenodd" clip-rule="evenodd" d="M445.871 19.222c2.173 0 3.368.967 3.368 2.793a2.613 2.613 0 01-2.173 2.794L450 28.785h-2.282l-2.499-3.868h-.217v3.868h-1.847v-9.563h2.716zm-.869 4.405h.543c1.195 0 1.739-.537 1.739-1.504 0-.86-.544-1.397-1.739-1.397h-.543v2.901zm-8.258 5.158h5.215v-1.612h-3.368v-2.579h3.26v-1.611h-3.26v-2.15h3.368v-1.611h-5.215v9.563zm-5.433-3.116l-2.499-6.447h-1.956L430.877 29h.978l4.02-9.778h-1.956l-2.608 6.447zm-22.057-1.612c0 2.687 2.173 4.943 4.89 4.943.869 0 1.629-.215 2.39-.537v-2.15c-.543.645-1.304 1.075-2.173 1.075-1.739 0-3.151-1.29-3.151-3.009v-.214c-.109-1.72 1.304-3.224 3.042-3.331.87 0 1.739.43 2.282 1.074v-2.149c-.652-.43-1.521-.537-2.282-.537-2.825-.215-4.998 2.041-4.998 4.835zm-3.368-1.182c-1.087-.43-1.413-.645-1.413-1.182.109-.645.652-1.182 1.304-1.074.543 0 1.087.322 1.521.752l.978-1.29c-.76-.644-1.738-1.074-2.716-1.074-1.521-.108-2.825 1.074-2.934 2.579v.107c0 1.29.543 2.042 2.282 2.579.435.108.869.322 1.304.537.326.215.543.538.543.967 0 .753-.652 1.397-1.304 1.397h-.108c-.87 0-1.63-.537-1.956-1.29l-1.195 1.183c.651 1.182 1.955 1.826 3.259 1.826 1.739.108 3.151-1.181 3.26-2.9v-.323c-.109-1.29-.652-1.934-2.825-2.794zm-6.302 5.91h1.847v-9.563h-1.847v9.563zM391 19.222H394.26c2.607.107 4.672 2.256 4.563 4.835 0 1.397-.652 2.687-1.738 3.654-.978.752-2.173 1.182-3.369 1.074H391v-9.563zm2.39 7.951c.87.108 1.848-.215 2.499-.752.652-.645.978-1.504.978-2.471 0-.86-.326-1.72-.978-2.364-.651-.538-1.629-.86-2.499-.752h-.543v6.34h.543z" fill="#000"/><path fill-rule="evenodd" clip-rule="evenodd" d="M422.076 19c-2.717 0-4.999 2.15-4.999 4.943 0 2.686 2.173 4.943 4.999 5.05 2.825.108 4.998-2.149 5.106-4.943-.108-2.794-2.281-5.05-5.106-5.05z" fill="url(#paint9_linear)"/><defs><linearGradient id="paint0_linear" x1="569.413" y1="7.778" x2="573.684" y2="7.778" gradientUnits="userSpaceOnUse"><stop stop-color="#007B40"/><stop offset="1" stop-color="#55B330"/></linearGradient><linearGradient id="paint1_linear" x1="559.775" y1="8.099" x2="564.064" y2="8.099" gradientUnits="userSpaceOnUse"><stop stop-color="#1D2970"/><stop offset="1" stop-color="#006DBA"/></linearGradient><linearGradient id="paint2_linear" x1="564.647" y1="7.879" x2="568.922" y2="7.879" gradientUnits="userSpaceOnUse"><stop stop-color="#6E2B2F"/><stop offset="1" stop-color="#E30138"/></linearGradient><linearGradient id="paint3_linear" x1="273" y1="0" x2="273" y2="16" gradientUnits="userSpaceOnUse"><stop stop-color="#23336F"/><stop offset=".359" stop-color="#3085CA"/><stop offset=".628" stop-color="#4892CF"/><stop offset="1" stop-color="#367E65"/></linearGradient><linearGradient id="paint4_linear" x1="468.447" y1="6.339" x2="470.311" y2="9.39" gradientUnits="userSpaceOnUse"><stop stop-color="#993B1A"/><stop offset=".24" stop-color="#FF5000"/><stop offset="1" stop-color="#EB8B1F"/></linearGradient><linearGradient id="paint5_linear" x1="224" y1="0" x2="224" y2="48" gradientUnits="userSpaceOnUse"><stop stop-color="#23336F"/><stop offset=".359" stop-color="#3085CA"/><stop offset=".628" stop-color="#4892CF"/><stop offset="1" stop-color="#367E65"/></linearGradient><linearGradient id="paint6_linear" x1="525.502" y1="23.371" x2="537.605" y2="23.371" gradientUnits="userSpaceOnUse"><stop stop-color="#007B40"/><stop offset="1" stop-color="#55B330"/></linearGradient><linearGradient id="paint7_linear" x1="498.194" y1="24.281" x2="510.349" y2="24.281" gradientUnits="userSpaceOnUse"><stop stop-color="#1D2970"/><stop offset="1" stop-color="#006DBA"/></linearGradient><linearGradient id="paint8_linear" x1="512.001" y1="23.656" x2="524.112" y2="23.656" gradientUnits="userSpaceOnUse"><stop stop-color="#6E2B2F"/><stop offset="1" stop-color="#E30138"/></linearGradient><linearGradient id="paint9_linear" x1="418.868" y1="20" x2="424.368" y2="29" gradientUnits="userSpaceOnUse"><stop stop-color="#993B1A"/><stop offset=".24" stop-color="#FF5000"/><stop offset="1" stop-color="#EB8B1F"/></linearGradient><clipPath id="clip0"><path fill="#fff" d="M0 0h89v26H0z"/></clipPath><clipPath id="clip1"><path fill="#fff" transform="translate(594 7)" d="M0 0h43.429v33.788H0z"/></clipPath></defs></svg>